<svg width="19" height="19" viewBox="0 0 19 19" fill="none" xmlns="http://www.w3.org/2000/svg">
<g clip-path="url(#clip0_1_157)">
<path d="M9.50004 17.4166C13.8724 17.4166 17.4167 13.8723 17.4167 9.49992C17.4167 5.12754 13.8724 1.58325 9.50004 1.58325C5.12767 1.58325 1.58337 5.12754 1.58337 9.49992C1.58337 13.8723 5.12767 17.4166 9.50004 17.4166Z" stroke="white" stroke-width="1.5" stroke-linecap="round" stroke-linejoin="round"/>
<path d="M6.33329 2.375H7.12496C5.58123 6.99957 5.58123 12.0004 7.12496 16.625H6.33329M11.875 2.375C13.4187 6.99957 13.4187 12.0004 11.875 16.625" stroke="white" stroke-width="1.5" stroke-linecap="round" stroke-linejoin="round"/>
<path d="M2.375 12.6667V11.8751C6.99957 13.4188 12.0004 13.4188 16.625 11.8751V12.6667M2.375 7.12508C6.99957 5.58135 12.0004 5.58135 16.625 7.12508" stroke="white" stroke-width="1.5" stroke-linecap="round" stroke-linejoin="round"/>
</g>
<defs>
<clipPath id="clip0_1_157">
<rect width="19" height="19" fill="white"/>
</clipPath>
</defs>
</svg>
