<svg width="20" height="20" viewBox="0 0 20 20" fill="none" xmlns="http://www.w3.org/2000/svg">
<path d="M14.8599 7.42993C14.8599 3.33309 11.5268 0 7.42993 0C3.33309 0 0 3.33332 0 7.42993C0 11.5268 3.33332 14.8599 7.43031 14.8599C11.5271 14.8599 14.8602 11.5265 14.8602 7.42993H14.8599ZM7.42993 12.8091C4.46368 12.8091 2.05034 10.3959 2.05034 7.42993C2.05049 4.46399 4.46372 2.05072 7.43031 2.05072C10.3969 2.05072 12.8095 4.46368 12.8095 7.42993C12.8095 10.3962 10.3963 12.8091 7.43031 12.8091H7.42993Z" fill="#222222"/>
<path d="M19.3535 16.2291L15.8828 12.758C15.7884 12.6637 15.6209 12.6637 15.5261 12.758L12.7579 15.5266C12.6594 15.6251 12.6594 15.7848 12.7579 15.8834L16.2287 19.3541C17.0509 20.2113 18.5316 20.2113 19.3538 19.3541C20.2154 18.4926 20.2154 17.0908 19.3538 16.2296L19.3535 16.2291Z" fill="#222222"/>
<path d="M14.6562 12.9152L13.8397 12.0986C13.3529 12.7649 12.7654 13.3525 12.0991 13.8393L12.9156 14.6558L14.6562 12.9149V12.9152Z" fill="#222222"/>
</svg>
